<svg width="22" height="20" viewBox="0 0 22 20" fill="none" xmlns="http://www.w3.org/2000/svg">
<path d="M15.8583 1.79583C18.4708 1.79583 20.625 4.17916 20.625 7.06666C20.625 10.1833 17.9208 12.1083 15.3542 14.4C12.7875 16.6917 11.4583 17.9292 11 18.2042C10.4958 17.8833 8.84583 16.3708 6.64583 14.4C4.03333 12.1083 1.375 10.1833 1.375 7.06666C1.375 4.17916 3.52917 1.79583 6.14167 1.79583C8.06667 1.79583 9.12083 2.7125 9.85417 3.76666C10.725 4.95833 10.8625 5.55416 11 5.55416C11.1375 5.55416 11.275 4.95833 12.1458 3.76666C12.8792 2.7125 13.9333 1.79583 15.8583 1.79583ZM15.8583 0.42083C13.7958 0.42083 12.2375 1.24583 11 2.9875C9.7625 1.29166 8.20417 0.466663 6.14167 0.466663C2.75 0.42083 0 3.4 0 7.06666C0 10.4125 2.475 12.5667 4.85833 14.6292C5.13333 14.8583 5.45417 15.1333 5.72917 15.4083L6.78333 16.325C8.8 18.1125 9.80833 19.0292 10.2667 19.3042C10.4958 19.4417 10.7708 19.5333 11 19.5333C11.275 19.5333 11.5042 19.4417 11.7333 19.3042C12.1917 19.0292 13.0167 18.2958 15.3083 16.1875L16.225 15.3625C16.5458 15.0875 16.8208 14.8125 17.1417 14.5833C19.5708 12.5667 22 10.4583 22 7.06666C22 3.4 19.25 0.42083 15.8583 0.42083Z" fill="#262626"/>
</svg>
