<svg width="20" height="22" viewBox="0 0 20 22" fill="none" xmlns="http://www.w3.org/2000/svg">
<path d="M18.9375 22C18.7542 22 18.5708 21.9083 18.4333 21.8167L10 13.2917L1.56667 21.8167C1.38333 22 1.0625 22.0917 0.833333 21.9542C0.558333 21.8625 0.375 21.5875 0.375 21.3125V0.6875C0.375 0.320833 0.695833 0 1.0625 0H18.9375C19.3042 0 19.625 0.320833 19.625 0.6875V21.3125C19.625 21.5875 19.4417 21.8625 19.2125 21.9542C19.1208 22 19.0292 22 18.9375 22ZM10 11.9167C10.3667 11.9167 10.7333 12.0542 11.0083 12.3292L18.25 19.6625V1.375H1.75V19.6625L8.99167 12.3292C9.26667 12.0542 9.63333 11.9167 10 11.9167Z" fill="#262626"/>
</svg>
